<?xml version="1.0" encoding="UTF-8"?>
<svg version="1.1" xmlns="http://www.w3.org/2000/svg" width="858" height="901">
<path d="M0 0 C0.99 0 1.98 0 3 0 C3.47308594 1.22332031 3.94617188 2.44664063 4.43359375 3.70703125 C10.69190984 19.72223039 17.09291582 35.84406173 27 50 C27.76830787 51.12885269 28.53653174 52.25776255 29.3046875 53.38671875 C34.13277334 60.38768105 39.26840192 66.759138 45.1640625 72.890625 C47 75 47 75 47 77 C47.99 77.33 48.98 77.66 50 78 C52.22707887 80.10335226 54.34044223 82.28789504 56.421875 84.53515625 C93.37467958 123.22584025 152.11774965 138.64116429 203.375 144.75 C204.33438477 144.86561279 205.29376953 144.98122559 206.28222656 145.1003418 C227.64956877 147.44618955 249.17158767 147.1634293 270.63456345 147.12857056 C273.15824243 147.12495234 275.68191565 147.12337119 278.20559692 147.12231445 C296.78894707 147.11265019 315.36080942 147.04323819 333.9375 146.5 C350.9999363 146.01793974 368.06178218 145.79295324 385.13040161 145.71289062 C388.05918167 145.69848232 390.98760673 145.6746024 393.91622925 145.64111328 C409.66568996 145.46768102 425.11693736 145.91587019 440.76171875 147.85546875 C441.43868931 147.93935034 442.11565987 148.02323193 442.81314468 148.10965538 C506.75286019 156.21456992 568.95403585 186.55356317 609 238 C609.78761719 238.97066406 610.57523438 239.94132813 611.38671875 240.94140625 C621.68438331 253.85794311 630.0249202 268.04713094 637.04833984 282.98144531 C637.68592834 284.33382645 638.3321974 285.68214705 638.98681641 287.02636719 C668.80045352 348.33983444 668.39706096 423.87740385 646.90795898 487.578125 C637.47962065 514.33972897 624.25076897 540.15571058 606 562 C605.52127441 562.57878906 605.04254883 563.15757812 604.54931641 563.75390625 C593.19556601 577.40884768 580.97753367 590.01765211 567 601 C566.21367188 601.67675781 565.42734375 602.35351562 564.6171875 603.05078125 C549.31594426 616.16955877 531.61812726 626.35287933 514 636 C513.23574707 636.42200684 512.47149414 636.84401367 511.68408203 637.27880859 C499.04146359 644.22908326 485.99619199 650.26645469 472.89286804 656.28858948 C465.73540586 659.57867312 458.58716589 662.88814598 451.45071411 666.22357178 C450.01425423 666.89354656 448.57669787 667.5611769 447.13790894 668.22613525 C407.49074196 686.55278626 370.47057537 712.13297676 354.55859375 754.5390625 C341.64434008 790.8092263 339.86633251 830.39722397 349.72949219 867.73950195 C350.65696721 871.2518842 351.20166987 874.36298824 351 878 C347.66051183 879.14644043 346.01684893 878.90575976 342.83203125 877.4453125 C342.02983154 877.08252197 341.22763184 876.71973145 340.40112305 876.34594727 C339.11975464 875.74157837 339.11975464 875.74157837 337.8125 875.125 C336.47989136 874.50806274 336.47989136 874.50806274 335.12036133 873.87866211 C293.36182631 854.33821502 256.93614494 825.12012715 240.1875 780.9375 C237.74134174 773.73080479 236.26088906 766.49479508 235 759 C234.86722656 758.27554688 234.73445312 757.55109375 234.59765625 756.8046875 C229.70606154 725.84692374 240.6270394 692.53408605 258.4296875 667.46484375 C270.76093103 650.64569867 285.82749725 634.87092472 303 623 C303.64839844 622.54496094 304.29679687 622.08992187 304.96484375 621.62109375 C316.86350059 613.31197584 329.26412664 605.94712133 342 599 C342.91052628 598.50126877 342.91052628 598.50126877 343.83944702 597.99246216 C353.68849911 592.61700312 363.66185447 587.75266242 373.95248413 583.28408813 C377.87126394 581.58054767 381.77881514 579.85154679 385.6875 578.125 C386.47444748 577.77782425 387.26139496 577.4306485 388.07218933 577.07295227 C441.51269895 553.45931772 496.04541012 528.61009762 519 471 C532.79234834 433.24049526 531.02093408 391.64582164 514.11376953 355.08349609 C499.89177498 325.54782398 476.80015727 303.98767821 446.10546875 292.34375 C441.34587049 290.72145443 436.50620243 289.44947028 431.625 288.25 C430.82425049 288.05116211 430.02350098 287.85232422 429.19848633 287.64746094 C411.63237755 283.60161742 393.92782902 283.67653772 376.00816226 283.6282146 C372.37324199 283.61610281 368.7383979 283.59227004 365.10353088 283.56959534 C358.2195155 283.52821869 351.33549258 283.49569435 344.45141321 283.46712118 C332.17326803 283.41603669 319.89518901 283.3528956 307.61714417 283.28178078 C303.33195252 283.25734833 299.0467764 283.23783058 294.76154387 283.2222687 C272.5578649 283.1376367 250.3911337 282.84617023 228.3125 280.3125 C227.18201233 280.18520004 227.18201233 280.18520004 226.02868652 280.05532837 C181.01196348 274.91500848 135.76475726 261.68494875 98 236 C97.40429199 235.59958496 96.80858398 235.19916992 96.19482422 234.78662109 C77.61255831 222.21790242 60.63707404 206.84425645 47 189 C46.57654297 188.45827148 46.15308594 187.91654297 45.71679688 187.35839844 C38.52977315 178.13936009 32.57792505 168.53213004 27.14794922 158.18603516 C26.0735758 156.1401101 24.97766861 154.10710975 23.87890625 152.07421875 C3.644516 113.9306139 -1.21826428 70.76254667 -1.13037109 28.22900391 C-1.12492388 25.0810076 -1.1303965 21.93314873 -1.13671875 18.78515625 C-1.13605934 16.77604135 -1.13478102 14.76692654 -1.1328125 12.7578125 C-1.13483673 11.82043243 -1.13686096 10.88305237 -1.13894653 9.91726685 C-1.13579437 9.05140961 -1.13264221 8.18555237 -1.12939453 7.29345703 C-1.12859894 6.53420929 -1.12780334 5.77496155 -1.12698364 4.9927063 C-1 3 -1 3 0 0 Z " fill="#5F5F5F" transform="translate(181,0)"/>
<path d="M0 0 C0.99 0.33 1.98 0.66 3 1 C3.0171128 50.23272627 3.03303414 99.46545274 3.04234314 148.69818115 C3.0424812 149.42646323 3.04261925 150.15474531 3.04276149 150.90509655 C3.04575418 166.73138847 3.04852439 182.55768042 3.05106533 198.38397242 C3.0523127 206.14481626 3.05360925 213.90566008 3.05493164 221.66650391 C3.0550624 222.43881454 3.05519316 223.21112518 3.05532788 224.00683917 C3.0595917 249.05431673 3.06710486 274.10179204 3.07629722 299.14926824 C3.08572389 324.88181333 3.09188407 350.61435716 3.09391499 376.34690394 C3.09420316 379.9787338 3.0945288 383.61056365 3.09487724 387.24239349 C3.09497838 388.31462215 3.09497838 388.31462215 3.09508156 389.408512 C3.09626477 400.93021599 3.10090686 412.45191613 3.10683203 423.97361856 C3.11271069 435.54767242 3.11488899 447.12172097 3.11350138 458.69577655 C3.11285843 464.97055217 3.11387067 471.24531647 3.11920547 477.5200901 C3.12404831 483.25785005 3.12433276 488.995591 3.12089889 494.7333518 C3.12047408 496.81550917 3.12176236 498.8976677 3.12488318 500.97982278 C3.12886325 503.79778152 3.1267532 506.61567055 3.12304783 509.43362808 C3.12567484 510.25256662 3.12830186 511.07150516 3.13100848 511.91526002 C3.12021527 515.51764553 2.88037544 518.47849826 2 522 C-29.35 522 -60.7 522 -93 522 C-94.15695142 497.70402021 -94.15695142 497.70402021 -94.19901276 487.16931766 C-94.20265996 486.38773597 -94.20630716 485.60615428 -94.21006489 484.80088829 C-94.21373664 483.99039017 -94.21740839 483.17989205 -94.22119141 482.34483337 C-94.23240982 480.57396961 -94.24397542 478.80310803 -94.25585175 477.03224856 C-94.28678556 472.23440817 -94.31200857 467.43655364 -94.33595133 462.6386739 C-94.35723929 458.50747973 -94.38180812 454.37630711 -94.40619934 450.24513029 C-94.63574678 411.12222827 -94.75997965 371.99875097 -94.85931396 332.87532711 C-94.87243909 327.79717379 -94.8858146 322.71902121 -94.89941406 317.64086914 C-94.90278322 316.37889989 -94.90615237 315.11693064 -94.90962362 313.8167199 C-94.96592748 293.33015744 -95.07813939 272.84426885 -95.21142745 252.35807865 C-95.34736226 231.28942949 -95.42646778 210.22113243 -95.45199776 189.15205675 C-95.46944874 176.17289369 -95.53060134 163.1954703 -95.6481005 150.21682102 C-95.72424703 141.33024219 -95.74492132 132.44460976 -95.72203386 123.55773854 C-95.71044614 118.43299686 -95.72308372 113.31136464 -95.80154037 108.18714333 C-95.87289337 103.49115023 -95.87431774 98.80039216 -95.8212707 94.10420448 C-95.81426402 92.41072644 -95.83240536 90.71690748 -95.87892652 89.02405404 C-96.19646388 76.7384558 -96.19646388 76.7384558 -92.51613617 72.149983 C-88.93282754 68.65192213 -84.96129338 65.82226583 -80.75087357 63.13077921 C-78.52463293 61.69299028 -76.45307766 60.0888604 -74.37890625 58.44140625 C-73.10765258 57.48060306 -71.83553625 56.52094007 -70.5625 55.5625 C-64.20992505 50.74229632 -57.98435988 45.78880304 -51.81323242 40.73901367 C-45.84498534 35.85764766 -39.79431372 31.08822903 -33.71777344 26.34277344 C-30.80728359 24.06766057 -27.90408216 21.78328199 -25 19.5 C-23.84637668 18.59372134 -22.6927308 17.6874714 -21.5390625 16.78125 C-19.07456736 14.84495947 -16.61120648 12.9072355 -14.1484375 10.96875 C-13.20097656 10.22334961 -13.20097656 10.22334961 -12.234375 9.46289062 C-11.02835731 8.51403848 -9.82261151 7.56484062 -8.6171875 6.61523438 C-7.08078495 5.4067668 -5.54055113 4.2031745 -4 3 C-3.27039063 2.38125 -2.54078125 1.7625 -1.7890625 1.125 C-1.19867188 0.75375 -0.60828125 0.3825 0 0 Z " fill="#5D5D5D" transform="translate(379,354)"/>
<path d="M0 0 C1.14549655 3.43648965 1.12655777 6.07244225 1.12863445 9.6986227 C1.13038749 10.38636557 1.13214053 11.07410843 1.13394669 11.78269199 C1.13862586 14.10420684 1.13613628 16.42565959 1.13371277 18.74717712 C1.13557977 20.42158499 1.13788003 22.09599242 1.14057809 23.77039915 C1.1467161 28.38494257 1.14656016 32.99946793 1.14538372 37.61401451 C1.14518021 42.58545773 1.15069359 47.55689507 1.15544128 52.52833557 C1.16375918 62.27296682 1.16649663 72.01759202 1.16705366 81.76222651 C1.16752825 89.67974269 1.16958013 97.59725687 1.17275429 105.51477242 C1.18156369 127.94382286 1.18617318 150.37286852 1.18542381 172.8019207 C1.18538386 174.01189381 1.1853439 175.22186691 1.18530273 176.46850586 C1.18526185 177.67994971 1.18522097 178.89139356 1.18517885 180.13954783 C1.18477222 199.78197045 1.19434532 219.42437391 1.2084411 239.06679099 C1.22278784 259.21728777 1.22971224 279.3677752 1.22884732 299.51827723 C1.22851478 310.83860334 1.2312869 322.15890936 1.24202538 333.47923088 C1.25110798 343.11598595 1.25332412 352.75271183 1.24651595 362.38946932 C1.24323947 367.30937852 1.2432345 372.22923164 1.2518692 377.14913559 C1.25968552 381.64887141 1.25835305 386.14850623 1.24958507 390.64823944 C1.24803928 392.2801083 1.24990643 393.91198451 1.25544515 395.54384469 C1.26245425 397.75453249 1.25725213 399.96486099 1.24888897 402.17553616 C1.24910634 403.40572269 1.24932371 404.63590922 1.24954766 405.90337414 C1.01193951 408.85184317 0.55094028 410.52107944 -1 413 C-12.06534858 413.02312283 -23.13069145 413.04091478 -34.19605923 413.05181217 C-39.33359566 413.05704113 -44.47111563 413.06413901 -49.60864258 413.07543945 C-54.5623141 413.08626787 -59.51596974 413.09227674 -64.46965218 413.09487724 C-66.36397616 413.09673157 -68.25829924 413.10035234 -70.1526165 413.10573006 C-72.79634386 413.11293989 -75.44000471 413.11399097 -78.08374023 413.11352539 C-78.87495773 413.11712067 -79.66617523 413.12071594 -80.48136902 413.12442017 C-85.88594784 413.11405216 -85.88594784 413.11405216 -87 412 C-87.10474655 410.17186106 -87.13845322 408.33963665 -87.14539433 406.5085125 C-87.15578128 404.70934405 -87.15578128 404.70934405 -87.16637808 402.87382877 C-87.16905308 401.52565778 -87.17161892 400.17748657 -87.17408752 398.82931519 C-87.18024538 397.41038303 -87.18682103 395.99145264 -87.19378132 394.57252419 C-87.21163435 390.65476253 -87.22304477 386.73700412 -87.233338 382.81921625 C-87.24295542 379.46335655 -87.25627143 376.10751565 -87.26960696 372.75166897 C-87.31726239 360.72770319 -87.3498482 348.7037108 -87.37890625 336.6796875 C-87.38121383 335.73116451 -87.38352141 334.78264151 -87.38589892 333.8053754 C-87.43133112 314.98136983 -87.46987179 296.15735275 -87.49662876 277.33331108 C-87.50261819 273.1919338 -87.50870379 269.05055668 -87.51489258 264.90917969 C-87.51642556 263.87981927 -87.51795854 262.85045884 -87.51953798 261.78990568 C-87.54525241 245.11416572 -87.60213157 228.43867834 -87.67135788 211.7630683 C-87.74180051 194.65348911 -87.78205879 177.54404057 -87.79337829 160.43431866 C-87.80054375 150.82339762 -87.82135209 141.21291525 -87.87640572 131.60213852 C-87.92325999 123.41677343 -87.94314118 115.23191294 -87.92752422 107.04641847 C-87.92040668 102.86902788 -87.92631601 98.69271809 -87.96710205 94.51549721 C-88.00415412 90.69036727 -88.00422879 86.86707708 -87.97497844 83.041896 C-87.97090461 81.65887377 -87.98035194 80.2757312 -88.00474424 78.89291809 C-88.17583479 68.57397136 -88.17583479 68.57397136 -85.26190937 64.67339349 C-83.25699893 62.89215994 -81.2618148 61.43361101 -79 60 C-77.989375 59.20335937 -76.97875 58.40671875 -75.9375 57.5859375 C-74.968125 56.85632813 -73.99875 56.12671875 -73 55.375 C-67.91561391 51.51642196 -62.93933078 47.542345 -58 43.5 C-52.17823591 38.7395058 -46.28164204 34.10514001 -40.30078125 29.546875 C-35.90100549 26.17500908 -31.59228623 22.6881352 -27.28686523 19.19702148 C-24.31913611 16.80271937 -21.32644808 14.49504013 -18.20703125 12.30078125 C-14.98639131 10.13178258 -14.98639131 10.13178258 -12.5625 7.5 C-9.35573877 4.37145245 -4.71066043 0 0 0 Z " fill="#616161" transform="translate(247,463)"/>
<path d="M0 0 C0.0228648 39.85732696 0.04049742 79.71465307 0.05106533 119.57198527 C0.05231611 124.27235543 0.05361042 128.97272557 0.05493164 133.6730957 C0.05519395 134.60889582 0.05545626 135.54469593 0.05572652 136.50885362 C0.06008355 151.68188439 0.06797128 166.85491138 0.0771528 182.02793991 C0.08648841 197.58482522 0.09205541 213.14170854 0.09408849 228.69859654 C0.09546391 238.30605451 0.09981552 247.91350183 0.10791647 257.52095652 C0.11318279 264.0998533 0.11480456 270.67874454 0.11350138 277.25764327 C0.11285782 281.05919969 0.1138775 284.86073743 0.11920547 288.66229057 C0.12492625 292.77389116 0.12300122 296.88545143 0.12025452 300.99705505 C0.12316736 302.21200903 0.1260802 303.426963 0.12908131 304.67873377 C0.12709026 305.77102763 0.12509921 306.86332149 0.12304783 307.98871517 C0.12342755 308.93915516 0.12380727 309.88959514 0.1241985 310.86883634 C0 313 0 313 -1 314 C-3.64738089 314.09511266 -6.26859001 314.12555635 -8.91625977 314.11352539 C-9.74545929 314.11367142 -10.57465881 314.11381744 -11.4289856 314.1139679 C-14.18315198 314.11326851 -16.93725161 314.10547493 -19.69140625 314.09765625 C-21.59569766 314.09579216 -23.49998955 314.09436822 -25.40428162 314.09336853 C-30.42667963 314.08954263 -35.44904892 314.07971173 -40.47143555 314.06866455 C-45.5922812 314.05845198 -50.71313148 314.05387124 -55.83398438 314.04882812 C-65.88933557 314.03808953 -75.9446654 314.02101224 -86 314 C-86.3196387 282.4663711 -86.56726766 250.93320457 -86.71491461 219.39833332 C-86.73242371 215.67220978 -86.7505443 211.94608945 -86.76904297 208.2199707 C-86.77271531 207.47819304 -86.77638766 206.73641538 -86.78017129 205.9721596 C-86.84102812 193.97398403 -86.95137521 181.97675117 -87.08013915 169.97913416 C-87.21123797 157.66087473 -87.28885931 145.34310767 -87.31723893 133.02417928 C-87.33641442 125.4270632 -87.39687771 117.83261167 -87.51083054 110.23631636 C-87.59385388 104.40334316 -87.60233004 98.57172403 -87.58350754 92.73814392 C-87.58735089 90.35117535 -87.61509499 87.96410351 -87.66887665 85.57773781 C-88.07498381 66.62429118 -88.07498381 66.62429118 -83.01810074 61.26174355 C-80.1734707 58.79986667 -77.13908436 56.88405728 -73.84661698 55.08041537 C-70.69408993 53.23594047 -67.95989052 50.92159471 -65.125 48.625 C-64.48336914 48.12258789 -63.84173828 47.62017578 -63.18066406 47.10253906 C-58.70258266 43.57857012 -54.28609042 39.98226614 -49.875 36.375 C-44.36897487 31.87519195 -38.77703356 27.53729076 -33.05859375 23.30859375 C-29.48101031 20.60827215 -25.9895404 17.81252461 -22.5 15 C-17.78142469 11.20907498 -13.05570419 7.43020469 -8.25 3.75 C-7.30640625 3.02296875 -6.3628125 2.2959375 -5.390625 1.546875 C-3 0 -3 0 0 0 Z " fill="#5E5D5D" transform="translate(122,562)"/>
<path d="M0 0 C2.67744427 1.26997595 5.03324173 2.65102386 7.3984375 4.43359375 C8.35399536 5.15107788 8.35399536 5.15107788 9.32885742 5.88305664 C10.00408447 6.39602295 10.67931152 6.90898926 11.375 7.4375 C12.08180908 7.97173584 12.78861816 8.50597168 13.5168457 9.05639648 C23.24533159 16.43193612 32.834889 23.92807149 42.10400391 31.87524414 C46.00284906 35.20267625 50.00560733 38.36818789 54.0625 41.5 C59.16437436 45.44897597 63.96717559 49.60825932 68.67431641 54.01782227 C71.82979562 56.96367174 75.07041005 59.73701601 78.4375 62.4375 C83.31428051 66.35306001 87.89178763 70.52034718 92.40991211 74.83959961 C95.73356609 77.97863528 99.17877194 80.46676629 103 83 C104.6171875 84.67578125 104.6171875 84.67578125 105.875 86.3125 C110.22991419 91.64153973 115.47832301 95.92622942 121 100 C120.42044847 103.19624909 119.5537099 104.81486736 117.24365234 107.08105469 C116.66569916 107.65555359 116.08774597 108.23005249 115.49227905 108.82196045 C114.86318634 109.43243225 114.23409363 110.04290405 113.5859375 110.671875 C112.61414047 111.63374725 112.61414047 111.63374725 111.62271118 112.61505127 C109.54711305 114.66724895 107.46166617 116.70906238 105.375 118.75 C103.31143882 120.77827424 101.25010041 122.8087334 99.19155884 124.84210205 C97.91146135 126.10549344 96.6282794 127.36577057 95.34140015 128.62225342 C91.54783684 132.35379296 87.97793307 136.21834127 84.50585938 140.25108337 C82.58847388 142.47794959 80.60765622 144.64373237 78.625 146.8125 C74.68607164 151.17870194 70.93225852 155.66693213 67.234375 160.23828125 C65.79690544 162.01501373 64.34971821 163.78395082 62.890625 165.54296875 C51.28597769 179.54054516 40.54018168 194.19252579 30 209 C29.43667969 209.78745605 28.87335938 210.57491211 28.29296875 211.38623047 C20.63789053 222.10204397 13.33540093 232.97000335 6.44165039 244.19433594 C5.88856201 245.08411133 5.33547363 245.97388672 4.765625 246.890625 C4.27868164 247.68500977 3.79173828 248.47939453 3.29003906 249.29785156 C2.65146973 250.14041504 2.65146973 250.14041504 2 251 C1.34 251 0.68 251 0 251 C-1.49938801 248.00122398 -1.12123252 244.92936231 -1.09765625 241.64233398 C-1.09619598 240.88240646 -1.09473572 240.12247894 -1.0932312 239.33952332 C-1.08941693 237.68187758 -1.08329174 236.02423596 -1.07516479 234.36660576 C-1.06236124 231.71738246 -1.05587181 229.06820964 -1.05102539 226.41896057 C-1.03766617 219.81665487 -1.01387034 213.21439493 -0.98962402 206.61212158 C-0.96635581 200.17761825 -0.94851003 193.74313001 -0.9375 187.30859375 C-0.93564697 186.41390759 -0.93379395 185.51922142 -0.93188477 184.59742355 C-0.91392929 172.97423842 -1.03253272 161.38944174 -1.73217773 149.78282166 C-2.05025367 144.07257134 -1.76884682 138.61464099 -1.22900391 132.92268372 C-0.88907709 128.58433606 -0.99804226 124.30143372 -1.15625 119.95703125 C-1.18223267 119.0631218 -1.20821533 118.16921234 -1.23498535 117.24821472 C-1.31696029 114.43607172 -1.4074121 111.62431219 -1.5 108.8125 C-1.62188105 105.09002289 -1.73519079 101.3674179 -1.84375 97.64453125 C-1.87392212 96.80992874 -1.90409424 95.97532623 -1.93518066 95.11543274 C-2.072573 90.39435102 -1.80675204 85.91970962 -1.21911621 81.23710632 C-0.84336009 77.40075668 -1.01065133 73.59621538 -1.15625 69.75 C-1.20966299 67.98828209 -1.26304747 66.22656331 -1.31640625 64.46484375 C-1.4065037 61.7448747 -1.49913452 59.02500825 -1.59326172 56.30517578 C-1.95028745 45.72756489 -2.02957808 35.32087372 -1.23632812 24.76171875 C-0.65568313 17.28355597 -0.65568313 17.28355597 -2 10 C-1.9140625 7.7734375 -1.9140625 7.7734375 -1.625 5.375 C-1.53476562 4.57835937 -1.44453125 3.78171875 -1.3515625 2.9609375 C-1 1 -1 1 0 0 Z " fill="#5F5F5F" transform="translate(426,345)"/>
<path d="M0 0 C1.1141629 -0.00571014 2.22832581 -0.01142029 3.37625122 -0.01730347 C4.60986893 -0.01842133 5.84348663 -0.01953918 7.11448669 -0.02069092 C8.40566406 -0.02565582 9.69684143 -0.03062073 11.02714539 -0.03573608 C14.58383164 -0.04889453 18.14049897 -0.05531399 21.69720578 -0.05974674 C23.92438018 -0.06267743 26.15154943 -0.06678266 28.37872124 -0.07125092 C35.36049742 -0.08494696 42.3422618 -0.09459815 49.32405049 -0.09845281 C57.35529706 -0.10291169 65.38637157 -0.12034874 73.41756588 -0.1494534 C79.63774566 -0.17120196 85.85787757 -0.18116437 92.0780949 -0.18249393 C95.78537188 -0.1835344 99.49248763 -0.18927587 103.1997242 -0.20731354 C138.26776757 -0.36803538 166.73450116 6.0882411 192.94432068 31.16387939 C203.11285734 41.28206014 213.06054669 55.20071851 216.86228943 69.14044189 C216.7407074 71.70318604 216.7407074 71.70318604 215.86228943 74.14044189 C213.67137146 75.50933838 213.67137146 75.50933838 210.74510193 76.57403564 C209.65358826 76.98766357 208.56207458 77.4012915 207.43748474 77.82745361 C205.66776306 78.47738281 205.66776306 78.47738281 203.86228943 79.14044189 C201.44022557 80.10349904 199.02103486 81.0738074 196.60447693 82.05059814 C195.32002871 82.56461591 194.03543919 83.07828072 192.75071716 83.59161377 C171.21036667 92.22512709 149.97817184 101.19107963 130.06712341 113.21661377 C129.17710632 113.74448486 128.28708923 114.27235596 127.37010193 114.81622314 C126.59295837 115.28971191 125.81581482 115.76320068 125.01512146 116.2510376 C122.86228943 117.14044189 122.86228943 117.14044189 120.79246521 116.98150635 C118.49410094 115.9800056 117.2087087 114.81357206 115.47166443 113.00762939 C114.84904724 112.37010742 114.22643005 111.73258545 113.58494568 111.07574463 C112.93396912 110.39584473 112.28299255 109.71594482 111.61228943 109.01544189 C110.25469578 107.62697916 108.89534385 106.24023325 107.53416443 104.85528564 C106.92669373 104.23000977 106.31922302 103.60473389 105.69334412 102.96051025 C103.25888119 100.54065411 100.70295686 98.28771593 98.08103943 96.07403564 C94.76191581 93.18148953 91.5717606 90.15360561 88.36228943 87.14044189 C83.27497772 82.37417412 78.15237696 77.68149048 72.86228943 73.14044189 C71.71976835 72.14502951 70.57791005 71.14885618 69.43650818 70.15216064 C62.01598766 63.68053397 54.51886314 57.33258058 46.86228943 51.14044189 C45.11173538 49.70361666 43.3617485 48.26610016 41.61228943 46.82794189 C39.69644361 45.26443553 37.77969246 43.70203818 35.86228943 42.14044189 C35.25771912 41.64544189 34.6531488 41.15044189 34.03025818 40.64044189 C32.06183986 39.03099365 30.08760071 37.4289195 28.11228943 35.82794189 C27.49837341 35.32416016 26.8844574 34.82037842 26.25193787 34.30133057 C23.34555916 31.95625115 20.51180023 29.87325725 17.22166443 28.09747314 C13.80977461 26.10984896 11.60557249 23.94945858 8.86228943 21.14044189 C5.83244215 19.02741853 2.72988787 17.07328131 -0.39552307 15.10528564 C-2.98743742 13.24811625 -4.56899006 11.89370646 -6.13771057 9.14044189 C-6.56999055 6.36664538 -6.32350378 3.97378827 -6.13771057 1.14044189 C-4.44612011 -0.55114857 -2.31772489 0.0070797 0 0 Z " fill="#616161" transform="translate(431.13771057128906,325.85955810546875)"/>
<path d="M0 0 C6.53342827 14.97757612 1.97498886 38.13340561 -3.25 52.6875 C-9.60798922 68.07458635 -19.7814193 81.92952611 -34 91 C-37.70332847 92.38874817 -39.55807359 92.5569936 -43.23925781 91.13500977 C-49.52519145 88.08983244 -54.29126482 84.51363446 -59.25 79.625 C-59.97598389 78.92528076 -60.70196777 78.22556152 -61.44995117 77.50463867 C-67.97612372 71.15679634 -74.20746082 64.55066308 -80.33154297 57.81689453 C-82.04574608 55.95018403 -83.78608231 54.11138512 -85.53515625 52.27734375 C-86.0974292 51.68332764 -86.65970215 51.08931152 -87.23901367 50.47729492 C-88.3029464 49.35398138 -89.37187486 48.23537133 -90.4465332 47.12231445 C-94 43.33801582 -94 43.33801582 -94 40 C-73.41736577 27.67940909 -51.64966193 17.82483471 -29.58203125 8.51757812 C-26.16035982 7.0679387 -22.75134369 5.59173976 -19.34375 4.109375 C-17.35467044 3.25923702 -15.36511771 2.41020489 -13.375 1.5625 C-12.47507324 1.16651611 -11.57514648 0.77053223 -10.64794922 0.36254883 C-9.82311035 0.01732178 -8.99827148 -0.32790527 -8.1484375 -0.68359375 C-7.43864746 -0.98837646 -6.72885742 -1.29315918 -5.99755859 -1.60717773 C-3.34658566 -2.12849471 -2.20922995 -1.48014194 0 0 Z " fill="#636363" transform="translate(651,406)"/>
<path d="M0 0 C0.99 0.33 1.98 0.66 3 1 C3.0171128 50.23272627 3.03303414 99.46545274 3.04234314 148.69818115 C3.0424812 149.42646323 3.04261925 150.15474531 3.04276149 150.90509655 C3.04575418 166.73138847 3.04852439 182.55768042 3.05106533 198.38397242 C3.0523127 206.14481626 3.05360925 213.90566008 3.05493164 221.66650391 C3.0550624 222.43881454 3.05519316 223.21112518 3.05532788 224.00683917 C3.0595917 249.05431673 3.06710486 274.10179204 3.07629722 299.14926824 C3.08572389 324.88181333 3.09188407 350.61435716 3.09391499 376.34690394 C3.09420316 379.9787338 3.0945288 383.61056365 3.09487724 387.24239349 C3.09497838 388.31462215 3.09497838 388.31462215 3.09508156 389.408512 C3.09626477 400.93021599 3.10090686 412.45191613 3.10683203 423.97361856 C3.11271069 435.54767242 3.11488899 447.12172097 3.11350138 458.69577655 C3.11285843 464.97055217 3.11387067 471.24531647 3.11920547 477.5200901 C3.12404831 483.25785005 3.12433276 488.995591 3.12089889 494.7333518 C3.12047408 496.81550917 3.12176236 498.8976677 3.12488318 500.97982278 C3.12886325 503.79778152 3.1267532 506.61567055 3.12304783 509.43362808 C3.12567484 510.25256662 3.12830186 511.07150516 3.13100848 511.91526002 C3.12021527 515.51764553 2.88037544 518.47849826 2 522 C-29.35 522 -60.7 522 -93 522 C-94.1562243 497.71928972 -94.1562243 497.71928972 -94.12908131 487.1133725 C-94.12769593 486.32776474 -94.12631055 485.54215698 -94.12488318 484.73274293 C-94.12259199 483.51075669 -94.12259199 483.51075669 -94.12025452 482.26408386 C-94.12069217 480.48466979 -94.12157063 478.70525578 -94.12284368 476.92584211 C-94.12505054 472.10480797 -94.12112047 467.28379658 -94.11606562 462.46276534 C-94.11170574 457.23813677 -94.11321144 452.01350927 -94.1139679 446.78887939 C-94.11448965 437.75958647 -94.11137943 428.73030084 -94.10573006 419.70100975 C-94.09756759 406.64652392 -94.09499499 393.59204157 -94.09374207 380.53755347 C-94.09155897 359.35226347 -94.0849191 338.16697735 -94.07543945 316.98168945 C-94.06624607 296.41463236 -94.05917468 275.84757632 -94.05493164 255.28051758 C-94.05466892 254.01058766 -94.05440619 252.74065774 -94.05413551 251.4322451 C-94.05283037 245.06073 -94.05156669 238.6892149 -94.05032361 232.31769979 C-94.03997414 179.54513052 -94.02237611 126.77256545 -94 74 C-92.02 73.01 -92.02 73.01 -90 72 C-90.495 72.99 -90.495 72.99 -91 74 C-91.10141559 76.41838382 -91.14213998 78.80823224 -91.1386652 81.22706032 C-91.14292853 82.36257641 -91.14292853 82.36257641 -91.14727798 83.52103221 C-91.1556689 86.08415144 -91.15689662 88.64722573 -91.15821838 91.21035767 C-91.16278075 93.05587064 -91.16778028 94.90138258 -91.17318195 96.74689329 C-91.18680958 101.83887581 -91.19419474 106.93085163 -91.20060861 112.02284765 C-91.20859231 117.506171 -91.22229703 122.9894803 -91.23532104 128.47279358 C-91.25711269 137.97987047 -91.27524731 147.48694877 -91.29092598 156.99403763 C-91.31360018 170.73983836 -91.34174637 184.48562356 -91.37124526 198.23141114 C-91.41895127 220.53089474 -91.4622158 242.83038511 -91.50268555 265.12988281 C-91.54201796 286.79688003 -91.58343623 308.46387162 -91.62768555 330.13085938 C-91.62904808 330.79843932 -91.63041061 331.46601926 -91.63181442 332.15382889 C-91.6468574 339.5229874 -91.66195759 346.89214579 -91.67708123 354.26130414 C-91.79109326 409.84085838 -91.89707608 465.4204239 -92 521 C-61.31 521 -30.62 521 1 521 C1 349.73 1 178.46 1 2 C0.01 1.505 0.01 1.505 -1 1 C-0.67 0.67 -0.34 0.34 0 0 Z " fill="#B2B2B2" transform="translate(379,354)"/>
<path d="M0 0 C0.99 0 1.98 0 3 0 C3.0228648 39.85732696 3.04049742 79.71465307 3.05106533 119.57198527 C3.05231611 124.27235543 3.05361042 128.97272557 3.05493164 133.6730957 C3.05519395 134.60889582 3.05545626 135.54469593 3.05572652 136.50885362 C3.06008355 151.68188439 3.06797128 166.85491138 3.0771528 182.02793991 C3.08648841 197.58482522 3.09205541 213.14170854 3.09408849 228.69859654 C3.09546391 238.30605451 3.09981552 247.91350183 3.10791647 257.52095652 C3.11318279 264.0998533 3.11480456 270.67874454 3.11350138 277.25764327 C3.11285782 281.05919969 3.1138775 284.86073743 3.11920547 288.66229057 C3.12492625 292.77389116 3.12300122 296.88545143 3.12025452 300.99705505 C3.12316736 302.21200903 3.1260802 303.426963 3.12908131 304.67873377 C3.12709026 305.77102763 3.12509921 306.86332149 3.12304783 307.98871517 C3.12342755 308.93915516 3.12380727 309.88959514 3.1241985 310.86883634 C3 313 3 313 2 314 C-26.05 314 -54.1 314 -83 314 C-83 231.83 -83 149.66 -83 65 C-82.01 65 -81.02 65 -80 65 C-80.495 65.495 -80.495 65.495 -81 66 C-81.11052011 69.17260236 -81.15497886 72.32389979 -81.15821838 75.49732971 C-81.16315636 76.50682157 -81.16809434 77.51631343 -81.17318195 78.55639595 C-81.18864003 81.96671338 -81.19693994 85.37701187 -81.20532227 88.78735352 C-81.21489427 91.22096933 -81.22490394 93.65458346 -81.23532104 96.0881958 C-81.25681822 101.34183257 -81.27524818 106.59546661 -81.29092598 111.849123 C-81.31359893 119.44510951 -81.34174527 127.04106789 -81.37124526 134.63703059 C-81.41895282 146.95974954 -81.4622084 159.28247995 -81.50268555 171.60522461 C-81.5420244 183.57854099 -81.58344673 195.55184716 -81.62768555 207.52514648 C-81.63040982 208.26267167 -81.63313409 209.00019685 -81.63594092 209.76007129 C-81.64962013 213.45986638 -81.66334046 217.15966132 -81.67708123 220.85945618 C-81.7910957 251.5729507 -81.89707771 282.28646573 -82 313 C-54.61 313 -27.22 313 1 313 C0.505 159.55 0.505 159.55 0 3 C-0.99 2.505 -0.99 2.505 -2 2 C-1.34 1.34 -0.68 0.68 0 0 Z " fill="#A7A7A7" transform="translate(119,562)"/>
<path d="M0 0 C0.99 0.33 1.98 0.66 3 1 C2.01 1.495 2.01 1.495 1 2 C1.00515373 3.26505277 1.01030746 4.53010553 1.01561737 5.83349323 C1.13787339 35.84354271 1.26006664 65.85359245 1.38218227 95.8636425 C1.39720308 99.55500972 1.41222442 103.24637693 1.42724609 106.93774414 C1.43023671 107.67264844 1.43322732 108.40755275 1.43630856 109.16472688 C1.48477352 121.07404205 1.53328155 132.98335705 1.58180541 144.89267198 C1.63157103 157.10699032 1.68129057 169.32130884 1.73096704 181.53562754 C1.76163706 189.07632821 1.79234329 196.61702872 1.82309544 204.15772905 C1.84664728 209.93379312 1.87013508 215.70985744 1.89359856 221.48592186 C1.90325248 223.85995874 1.91292745 226.23399553 1.92262459 228.60803223 C1.9358178 231.83872963 1.94893664 235.06942733 1.96203613 238.30012512 C1.96592708 239.24855988 1.96981803 240.19699463 1.97382689 241.17416984 C1.97731028 242.0370583 1.98079368 242.89994675 1.98438263 243.78898335 C1.98742039 244.53513379 1.99045815 245.28128424 1.99358797 246.05004531 C1.99901359 247.70002267 2 249.35001372 2 251 C1.34 251 0.68 251 0 251 C-1.49938801 248.00122398 -1.12123252 244.92936231 -1.09765625 241.64233398 C-1.09619598 240.88240646 -1.09473572 240.12247894 -1.0932312 239.33952332 C-1.08941693 237.68187758 -1.08329174 236.02423596 -1.07516479 234.36660576 C-1.06236124 231.71738246 -1.05587181 229.06820964 -1.05102539 226.41896057 C-1.03766617 219.81665487 -1.01387034 213.21439493 -0.98962402 206.61212158 C-0.96635581 200.17761825 -0.94851003 193.74313001 -0.9375 187.30859375 C-0.93564697 186.41390759 -0.93379395 185.51922142 -0.93188477 184.59742355 C-0.91392929 172.97423842 -1.03253272 161.38944174 -1.73217773 149.78282166 C-2.05025367 144.07257134 -1.76884682 138.61464099 -1.22900391 132.92268372 C-0.88907709 128.58433606 -0.99804226 124.30143372 -1.15625 119.95703125 C-1.18223267 119.0631218 -1.20821533 118.16921234 -1.23498535 117.24821472 C-1.31696029 114.43607172 -1.4074121 111.62431219 -1.5 108.8125 C-1.62188105 105.09002289 -1.73519079 101.3674179 -1.84375 97.64453125 C-1.87392212 96.80992874 -1.90409424 95.97532623 -1.93518066 95.11543274 C-2.072573 90.39435102 -1.80675204 85.91970962 -1.21911621 81.23710632 C-0.84336009 77.40075668 -1.01065133 73.59621538 -1.15625 69.75 C-1.20966299 67.98828209 -1.26304747 66.22656331 -1.31640625 64.46484375 C-1.4065037 61.7448747 -1.49913452 59.02500825 -1.59326172 56.30517578 C-1.95028745 45.72756489 -2.02957808 35.32087372 -1.23632812 24.76171875 C-0.65568313 17.28355597 -0.65568313 17.28355597 -2 10 C-1.9140625 7.7734375 -1.9140625 7.7734375 -1.625 5.375 C-1.53476562 4.57835937 -1.44453125 3.78171875 -1.3515625 2.9609375 C-1 1 -1 1 0 0 Z " fill="#BDBDBD" transform="translate(426,345)"/>
<path d="M0 0 C0.99 0.33 1.98 0.66 3 1 C2.34 1 1.68 1 1 1 C1.10855344 8.43365659 1.22137582 15.86723866 1.33933926 23.30075169 C1.39401342 26.75410398 1.44733069 30.20746506 1.49731445 33.66088867 C1.55512013 37.65030175 1.61924572 41.63959329 1.68359375 45.62890625 C1.70030624 46.84203995 1.71701874 48.05517365 1.73423767 49.30506897 C1.87949407 57.89939957 2.35906164 66.4304935 3 75 C3.66 75 4.32 75 5 75 C4.97679687 75.75023438 4.95359375 76.50046875 4.9296875 77.2734375 C4.81204587 83.94539875 4.83025613 90.6113097 7 97 C7.66 97.33 8.32 97.66 9 98 C8.67 100.97 8.34 103.94 8 107 C6.41548055 103.8309611 5.63626061 101.91423255 5 98.578125 C4.83604736 97.72573242 4.67209473 96.87333984 4.50317383 95.99511719 C4.25410278 94.63628418 4.25410278 94.63628418 4 93.25 C3.82557373 92.3105957 3.65114746 91.37119141 3.47143555 90.40332031 C-0.28795732 69.72753834 -1.17370982 49.20161162 -1.13037109 28.22900391 C-1.12492388 25.0810076 -1.1303965 21.93314873 -1.13671875 18.78515625 C-1.13605934 16.77604135 -1.13478102 14.76692654 -1.1328125 12.7578125 C-1.13483673 11.82043243 -1.13686096 10.88305237 -1.13894653 9.91726685 C-1.13579437 9.05140961 -1.13264221 8.18555237 -1.12939453 7.29345703 C-1.12859894 6.53420929 -1.12780334 5.77496155 -1.12698364 4.9927063 C-1 3 -1 3 0 0 Z " fill="#C0C0BF" transform="translate(181,0)"/>
<path d="M0 0 C2.28162571 -0.00161182 4.56324126 -0.00516861 6.84486389 -0.00918579 C10.49301205 -0.01509199 14.14111844 -0.01522973 17.78926849 -0.01093674 C19.78430179 -0.00947943 21.7793368 -0.01238398 23.77436829 -0.01544189 C31.00234758 0.00294673 38.10556047 0.31336908 45.28956604 1.12338257 C45.28956604 1.45338257 45.28956604 1.78338257 45.28956604 2.12338257 C30.2697215 2.30008662 15.29498105 1.75153176 0.28956604 1.12338257 C0.28956604 1.78338257 0.28956604 2.44338257 0.28956604 3.12338257 C-25.12043396 2.79338257 -50.53043396 2.46338257 -76.71043396 2.12338257 C-76.71043396 1.79338257 -76.71043396 1.46338257 -76.71043396 1.12338257 C-51.14129678 0.30503088 -25.58066003 0.01190027 0 0 Z " fill="#A9A9A9" transform="translate(569.7104339599609,145.87661743164063)"/>
<path d="M0 0 C0.99 0.33 1.98 0.66 3 1 C2.01 1.495 2.01 1.495 1 2 C1.00523682 3.08901611 1.01047363 4.17803223 1.01586914 5.30004883 C1.12336039 29.88803455 0.88584927 54.4271067 0 79 C-0.33 79 -0.66 79 -1 79 C-1.17033274 73.47249006 -1.33053535 67.94480238 -1.48217773 62.41674805 C-1.53487154 60.54427592 -1.59012303 58.67187365 -1.64819336 56.79956055 C-1.9795113 46.05621612 -2.03817007 35.46492088 -1.23413086 24.74194336 C-0.65647816 17.27372567 -0.65647816 17.27372567 -2 10 C-1.9140625 7.7734375 -1.9140625 7.7734375 -1.625 5.375 C-1.53476562 4.57835937 -1.44453125 3.78171875 -1.3515625 2.9609375 C-1 1 -1 1 0 0 Z " fill="#CFD0CF" transform="translate(426,345)"/>
<path d="M0 0 C0.99 0.33 1.98 0.66 3 1 C2.48817777 5.17917653 0.23850155 7.10710028 -2.69140625 9.984375 C-3.15610825 10.44483215 -3.62081024 10.90528931 -4.09959412 11.37969971 C-5.58031819 12.84367811 -7.07114519 14.29686041 -8.5625 15.75 C-9.57034664 16.74279449 -10.57751633 17.7362767 -11.58398438 18.73046875 C-14.04819461 21.16166473 -16.52157329 23.58328868 -19 26 C-19 23 -19 23 -17.3203125 21.09765625 C-16.59585938 20.42605469 -15.87140625 19.75445312 -15.125 19.0625 C-12.34329055 16.4752111 -10.64612651 14.39262659 -9 11 C-7.34375 9.078125 -7.34375 9.078125 -5.5 7.25 C-4.8915625 6.63640625 -4.283125 6.0228125 -3.65625 5.390625 C-2 4 -2 4 0 4 C0 2.68 0 1.36 0 0 Z " fill="#A1A0A0" transform="translate(544,444)"/>
<path d="M0 0 C0.66 0.33 1.32 0.66 2 1 C-3.21651161 7.68365551 -9.50729256 13.91306867 -17 18 C-19.171875 17.59375 -19.171875 17.59375 -21 17 C-14.10035518 11.19776061 -7.17026999 5.4682362 0 0 Z " fill="#737373" transform="translate(314,405)"/>
<path d="M0 0 C0.33 0 0.66 0 1 0 C0.77033264 14.00970866 -2.03562254 27.34589778 -5 41 C-6.77322244 37.71984109 -7.17209867 35.97027096 -6.625 32.25 C-6.51414062 31.45078125 -6.40328125 30.6515625 -6.2890625 29.828125 C-6.19367187 29.22484375 -6.09828125 28.6215625 -6 28 C-5.34 28 -4.68 28 -4 28 C-3.87153687 27.10075806 -3.87153687 27.10075806 -3.74047852 26.18334961 C-2.49365234 17.45556641 -1.24682617 8.7277832 0 0 Z " fill="#D2D2D2" transform="translate(840,422)"/>
<path d="M0 0 C5.10454793 0.5537478 8.96575557 3.02592796 13.3125 5.5625 C14.05306641 5.98724609 14.79363281 6.41199219 15.55664062 6.84960938 C17.37468118 7.89351653 19.18783748 8.94592192 21 10 C20.01 10.495 20.01 10.495 19 11 C18.34 10.67 17.68 10.34 17 10 C16.67 10.66 16.34 11.32 16 12 C15.443125 11.54625 14.88625 11.0925 14.3125 10.625 C11.91791697 8.94232003 9.74107637 8.00283282 7 7 C5.33333333 6.33333333 3.66666667 5.66666667 2 5 C2.66 4.34 3.32 3.68 4 3 C2.68 2.01 1.36 1.02 0 0 Z " fill="#969696" transform="translate(704,172)"/>
<path d="M0 0 C0.58910156 0.21914063 1.17820312 0.43828125 1.78515625 0.6640625 C-7.25584603 9.47955225 -7.25584603 9.47955225 -14.21484375 10.6640625 C-12.57009844 8.96947643 -10.90954224 7.30792004 -9.21484375 5.6640625 C-8.63734375 5.10203125 -8.05984375 4.54 -7.46484375 3.9609375 C-6.86671875 3.40921875 -6.26859375 2.8575 -5.65234375 2.2890625 C-5.09417969 1.76570312 -4.53601563 1.24234375 -3.9609375 0.703125 C-2.21484375 -0.3359375 -2.21484375 -0.3359375 0 0 Z " fill="#909090" transform="translate(72.21484375,600.3359375)"/>
<path d="M0 0 C3.37814093 0.39742834 6.40799465 0.75453437 9.5625 2.0625 C12.4912491 3.18894196 14.88889767 3.14470243 18 3 C18 3.66 18 4.32 18 5 C18.969375 5.12375 19.93875 5.2475 20.9375 5.375 C22.4534375 5.684375 22.4534375 5.684375 24 6 C24.33 6.66 24.66 7.32 25 8 C18.91121808 7.45339344 13.71354433 6.07141474 8 3.9375 C6.83791016 3.51500977 6.83791016 3.51500977 5.65234375 3.08398438 C3.76549033 2.39679702 1.88233849 1.69945987 0 1 C0 0.67 0 0.34 0 0 Z " fill="#BBBBBB" transform="translate(330,261)"/>
<path d="M0 0 C0.33 0 0.66 0 1 0 C1.33 2.64 1.66 5.28 2 8 C1.34 8 0.68 8 0 8 C-1.76615118 12.70973649 -2.48594831 17.03083364 -3 22 C-4.32 22.33 -5.64 22.66 -7 23 C-4.71143755 15.3194457 -2.36446331 7.65750046 0 0 Z " fill="#AAAAAA" transform="translate(705,455)"/>
<path d="M0 0 C4.82360189 -0.19294408 8.49646738 0.24252386 13 2 C13 2.99 13 3.98 13 5 C13.66 5 14.32 5 15 5 C15 5.66 15 6.32 15 7 C9.80355921 5.40109514 4.93387858 3.25861997 0 1 C0 0.67 0 0.34 0 0 Z " fill="#979898" transform="translate(629,292)"/>
<path d="M0 0 C0.66 0.33 1.32 0.66 2 1 C1.21625 1.2475 0.4325 1.495 -0.375 1.75 C-3.32317108 3.15389099 -3.9024777 4.00675737 -5 7 C-5.86625 6.979375 -6.7325 6.95875 -7.625 6.9375 C-10.85903648 6.99738956 -13.82799897 7.39580933 -17 8 C-14.26965065 5.26965065 -11.02687784 4.21336269 -7.5 2.8125 C-6.81035156 2.52697266 -6.12070312 2.24144531 -5.41015625 1.94726562 C-3.63095824 1.23454595 -1.81682212 0.6104689 0 0 Z " fill="#A3A3A3" transform="translate(628,412)"/>
<path d="M0 0 C1.40357031 4.21071093 -0.25785304 7.05547815 -1.8125 11 C-2.08642578 11.72445312 -2.36035156 12.44890625 -2.64257812 13.1953125 C-3.86851383 16.38215736 -5.09959056 19.14938584 -7 22 C-7.33 19.69 -7.66 17.38 -8 15 C-7.34 15 -6.68 15 -6 15 C-6.33 14.01 -6.66 13.02 -7 12 C-6.55011719 11.60167969 -6.10023438 11.20335937 -5.63671875 10.79296875 C-3.77001716 8.74806176 -2.88250531 6.85837469 -1.8125 4.3125 C-1.46832031 3.50425781 -1.12414062 2.69601562 -0.76953125 1.86328125 C-0.38861328 0.94095703 -0.38861328 0.94095703 0 0 Z " fill="#B8B8B8" transform="translate(537,746)"/>
<path d="M0 0 C0.99 0.33 1.98 0.66 3 1 C0.56781941 2.19963643 -1.86970578 3.38484438 -4.3125 4.5625 C-5.00279297 4.90474609 -5.69308594 5.24699219 -6.40429688 5.59960938 C-11.66015625 8.11328125 -11.66015625 8.11328125 -15 7 C-11.87411325 2.92275642 -8.85256378 2.25286433 -4.0234375 1.39453125 C-1.94152684 1.08233633 -1.94152684 1.08233633 0 0 Z " fill="#B1B1B1" transform="translate(658,652)"/>
<path d="M0 0 C0.33 0 0.66 0 1 0 C1.20674944 5.78898419 0.59162079 10.42932723 -1 16 C-2.9078584 12.8250906 -3.1609041 10.89414789 -2.625 7.25 C-2.51414062 6.45078125 -2.40328125 5.6515625 -2.2890625 4.828125 C-2.19367187 4.22484375 -2.09828125 3.6215625 -2 3 C-1.34 3 -0.68 3 0 3 C0 2.01 0 1.02 0 0 Z " fill="#9C9B9B" transform="translate(836,447)"/>
<path d="M0 0 C3.56943715 0.30595176 5.03014419 1.02424641 7.875 3.3125 C8.57625 4.199375 9.2775 5.08625 10 6 C9.6328125 8.16796875 9.6328125 8.16796875 9 10 C7.49702124 8.52386015 5.99768715 7.04400843 4.5 5.5625 C3.6646875 4.73878906 2.829375 3.91507812 1.96875 3.06640625 C0 1 0 1 0 0 Z " fill="#8D8C8C" transform="translate(617,354)"/>
<path d="M0 0 C5.06316683 -0.15639125 9.50398438 0.37233929 14.4375 1.5 C15.67371094 1.7784375 16.90992188 2.056875 18.18359375 2.34375 C19.57771484 2.66859375 19.57771484 2.66859375 21 3 C21 3.33 21 3.66 21 4 C16.545 4.495 16.545 4.495 12 5 C11.67 4.01 11.34 3.02 11 2 C7.37 1.67 3.74 1.34 0 1 C0 0.67 0 0.34 0 0 Z " fill="#BEBEBE" transform="translate(630,150)"/>
<path d="M0 0 C1.35814777 4.0744433 -0.05254238 6.81468116 -1.4375 10.6875 C-1.68048828 11.38939453 -1.92347656 12.09128906 -2.17382812 12.81445312 C-2.7744944 14.54578532 -3.38619719 16.27328137 -4 18 C-5.15469014 14.05842614 -4.82245557 11.03750918 -4 7 C-3.34 6.34 -2.68 5.68 -2 5 C-1.29289322 3.35008418 -0.62056011 1.68437744 0 0 Z " fill="#B7B7B7" transform="translate(830,475)"/>
<path d="M0 0 C0.99 0.33 1.98 0.66 3 1 C0.553753 4.03334628 -0.76593221 4.94350088 -4.625 5.875 C-6.295625 5.936875 -6.295625 5.936875 -8 6 C-8.66 5.34 -9.32 4.68 -10 4 C-5.545 3.505 -5.545 3.505 -1 3 C-0.67 2.01 -0.34 1.02 0 0 Z " fill="#A0A0A1" transform="translate(618,492)"/>
<path d="M0 0 C3.28465896 2.79196011 5.01321958 6.23196817 7 10 C7 10.66 7 11.32 7 12 C6.34 12 5.68 12 5 12 C5 11.34 5 10.68 5 10 C4.34 10 3.68 10 3 10 C0.70366176 6.55549263 0.45983515 4.06187717 0 0 Z " fill="#9B9B9B" transform="translate(804,259)"/>
<path d="M0 0 C1.65 0 3.3 0 5 0 C2.81482901 2.40575607 0.74080329 3.79535581 -2.1875 5.1875 C-2.90292969 5.53167969 -3.61835937 5.87585938 -4.35546875 6.23046875 C-4.89816406 6.48441406 -5.44085937 6.73835937 -6 7 C-5.67 5.68 -5.34 4.36 -5 3 C-3.68 3 -2.36 3 -1 3 C-0.67 2.01 -0.34 1.02 0 0 Z " fill="#9E9D9E" transform="translate(598,680)"/>
<path d="M0 0 C1.32 0.66 2.64 1.32 4 2 C2.71186658 2.83878455 1.41936744 3.67086783 0.125 4.5 C-0.59429688 4.9640625 -1.31359375 5.428125 -2.0546875 5.90625 C-4 7 -4 7 -6 7 C-5.67 5.68 -5.34 4.36 -5 3 C-3.68 3 -2.36 3 -1 3 C-0.67 2.01 -0.34 1.02 0 0 Z " fill="#999998" transform="translate(712,622)"/>
<path d="M0 0 C0.99 0 1.98 0 3 0 C1.34784004 3.57967992 -0.73124352 6.77982952 -3 10 C-3.33 10 -3.66 10 -4 10 C-4 8.35 -4 6.7 -4 5 C-3.34 4.67 -2.68 4.34 -2 4 C-0.86649466 1.98330173 -0.86649466 1.98330173 0 0 Z " fill="#A0A0A0" transform="translate(794,547)"/>
<path d="M0 0 C1 3 1 3 0.00390625 5.48046875 C-0.47175781 6.37378906 -0.94742188 7.26710938 -1.4375 8.1875 C-1.91058594 9.08855469 -2.38367188 9.98960937 -2.87109375 10.91796875 C-3.24363281 11.60503906 -3.61617187 12.29210937 -4 13 C-4.33 13 -4.66 13 -5 13 C-5.35870303 9.14394242 -5.33442938 7.47467396 -3.0625 4.25 C-2.381875 3.5075 -1.70125 2.765 -1 2 C-0.67 1.34 -0.34 0.68 0 0 Z " fill="#A8A7A8" transform="translate(819,505)"/>
<path d="M0 0 C3.37462715 0.54723683 5.08235 1.0549 8 3 C7.67 4.32 7.34 5.64 7 7 C5.83040013 6.02433888 4.66438823 5.044375 3.5 4.0625 C2.8503125 3.51722656 2.200625 2.97195313 1.53125 2.41015625 C1.0259375 1.94480469 0.520625 1.47945313 0 1 C0 0.67 0 0.34 0 0 Z " fill="#858585" transform="translate(521,425)"/>
<path d="M0 0 C0.66 0.33 1.32 0.66 2 1 C-0.31 3.64 -2.62 6.28 -5 9 C-5.66 8.01 -6.32 7.02 -7 6 C-4.69 4.02 -2.38 2.04 0 0 Z " fill="#939393" transform="translate(333,390)"/>
<path d="M0 0 C1.89213369 2.38573379 3.02391783 4.07175348 4 7 C4.66 7.66 5.32 8.32 6 9 C5.625 12.125 5.625 12.125 5 15 C3.25050228 12.37575342 2.34610019 10.44272784 1.375 7.5 C0.98441406 6.33984375 0.98441406 6.33984375 0.5859375 5.15625 C0 3 0 3 0 0 Z " fill="#B8B8B7" transform="translate(699,361)"/>
<path d="M0 0 C3.39417765 3.12621626 5.6062718 5.56541027 7 10 C5.1875 9.8125 5.1875 9.8125 3 9 C0.46629412 5.65188866 0 4.29875783 0 0 Z " fill="#969595" transform="translate(797,249)"/>
<path d="M0 0 C0.66 0.33 1.32 0.66 2 1 C0.79157144 5.43090471 -0.51668565 7.98112756 -4 11 C-4 9.35 -4 7.7 -4 6 C-3.01 6 -2.02 6 -1 6 C-1.020625 5.195625 -1.04125 4.39125 -1.0625 3.5625 C-1 1 -1 1 0 0 Z " fill="#9C9C9C" transform="translate(806,528)"/>
<path d="M0 0 C0.99 0 1.98 0 3 0 C1.77472971 4.05281712 0.30119506 7.44360764 -2 11 C-3.33332095 8.3333581 -2.67102033 6.83319697 -2 4 C-1.34 4 -0.68 4 0 4 C0 2.68 0 1.36 0 0 Z " fill="#A2A1A1" transform="translate(811,518)"/>
<path d="M0 0 C-3.1254959 2.64465038 -6.08788267 3.84414715 -10 5 C-7.62417533 -0.26075462 -5.61350876 -0.1220328 0 0 Z " fill="#9C9B9B" transform="translate(618,672)"/>
<path d="M0 0 C0.66 0.33 1.32 0.66 2 1 C0.02 3.31 -1.96 5.62 -4 8 C-5.32 7.67 -6.64 7.34 -8 7 C-5.36 4.69 -2.72 2.38 0 0 Z " fill="#9E9E9E" transform="translate(183,511)"/>
<path d="M0 0 C0.99 0 1.98 0 3 0 C1.44499019 3.81684226 -1.03595495 6.19195732 -4 9 C-4 7.68 -4 6.36 -4 5 C-3.01 5 -2.02 5 -1 5 C-0.67 3.35 -0.34 1.7 0 0 Z " fill="#9F9F9F" transform="translate(635,475)"/>
<path d="M0 0 C0.66 0.33 1.32 0.66 2 1 C0.35 2.98 -1.3 4.96 -3 7 C-4.32 6.67 -5.64 6.34 -7 6 C-4.69 4.02 -2.38 2.04 0 0 Z " fill="#969797" transform="translate(300,416)"/>
<path d="M0 0 C0.66 0.33 1.32 0.66 2 1 C0.35 2.98 -1.3 4.96 -3 7 C-4.32 6.67 -5.64 6.34 -7 6 C-4.69 4.02 -2.38 2.04 0 0 Z " fill="#969696" transform="translate(314,405)"/>
<path d="M0 0 C1.32 0.33 2.64 0.66 4 1 C1.03 3.475 1.03 3.475 -2 6 C-2.66 5.67 -3.32 5.34 -4 5 C-2.68 3.35 -1.36 1.7 0 0 Z " fill="#7D7D7D" transform="translate(70,600)"/>
<path d="M0 0 C2.25 0.125 2.25 0.125 5 1 C7.3125 4.0625 7.3125 4.0625 9 7 C5.18315774 5.44499019 2.80804268 2.96404505 0 0 Z " fill="#9F9F9F" transform="translate(263,223)"/>
<path d="M0 0 C0.33 0.99 0.66 1.98 1 3 C1.66 3 2.32 3 3 3 C2.67 5.97 2.34 8.94 2 12 C0 10 0 10 -0.1953125 7.6171875 C-0.17210937 6.71226563 -0.14890625 5.80734375 -0.125 4.875 C-0.10695312 3.96492188 -0.08890625 3.05484375 -0.0703125 2.1171875 C-0.04710937 1.41851562 -0.02390625 0.71984375 0 0 Z " fill="#9A9B9A" transform="translate(183,72)"/>
<path d="M0 0 C3.8665284 3.222107 4.88059018 6.14922412 6 11 C1.9957657 7.50912907 0.37328935 5.35048061 0 0 Z " fill="#979797" transform="translate(220,174)"/>
<path d="M0 0 C0.6875 1.8125 0.6875 1.8125 1 4 C-0.375 5.5625 -0.375 5.5625 -2 7 C-2.33 7.99 -2.66 8.98 -3 10 C-3.66 10 -4.32 10 -5 10 C-3.66511872 6.40608886 -2.03977277 3.24509304 0 0 Z " fill="#ADAEAE" transform="translate(436,673)"/>
<path d="M0 0 C1.98 0 3.96 0 6 0 C3.45394698 2.00047023 1.0335364 3.82572785 -2 5 C-2.99 4.67 -3.98 4.34 -5 4 C-4.360625 3.71125 -3.72125 3.4225 -3.0625 3.125 C-0.84793921 2.17176549 -0.84793921 2.17176549 0 0 Z " fill="#BABABB" transform="translate(631,663)"/>
<path d="M0 0 C3.55780196 0.60990891 6.6828589 1.5783681 10 3 C8.1875 4.0625 8.1875 4.0625 6 5 C2.60085025 3.86695008 1.94745549 2.87481525 0 0 Z " fill="#ACABAB" transform="translate(297,124)"/>
<path d="M0 0 C0.66 0.33 1.32 0.66 2 1 C1.34 2.32 0.68 3.64 0 5 C-1.98 5 -3.96 5 -6 5 C-4.06745228 2.9754262 -2.36841312 1.57894208 0 0 Z " fill="#9F9F9F" transform="translate(510,606)"/>
<path d="M0 0 C0.66 0.33 1.32 0.66 2 1 C0.8125 3.5 0.8125 3.5 -1 6 C-3.6875 6.3125 -3.6875 6.3125 -6 6 C-4 4 -2 2 0 0 Z " fill="#A3A3A3" transform="translate(111,568)"/>
<path d="M0 0 C2.125 0.9375 2.125 0.9375 4 2 C-0.75 5 -0.75 5 -3 5 C-2.625 3.0625 -2.625 3.0625 -2 1 C-1.34 0.67 -0.68 0.34 0 0 Z " fill="#949494" transform="translate(564,433)"/>
<path d="M0 0 C2.31 0.33 4.62 0.66 7 1 C7.33 2.32 7.66 3.64 8 5 C4.62496331 3.8141763 2.35277269 2.72426311 0 0 Z " fill="#9E9E9E" transform="translate(289,241)"/>
<path d="M0 0 C2.02045442 0.60183749 4.02111039 1.27306096 6 2 C6.33 2.66 6.66 3.32 7 4 C5.68 3.67 4.36 3.34 3 3 C2.67 3.66 2.34 4.32 2 5 C1.01 4.34 0.02 3.68 -1 3 C-0.67 2.01 -0.34 1.02 0 0 Z " fill="#949494" transform="translate(718,179)"/>
<path d="M0 0 C0.99 0 1.98 0 3 0 C1.8141763 3.37503669 0.72426311 5.64722731 -2 8 C-1.125 1.125 -1.125 1.125 0 0 Z " fill="#A4A4A4" transform="translate(544,730)"/>
<path d="M0 0 C1.32 0.33 2.64 0.66 4 1 C4.33 3.31 4.66 5.62 5 8 C2.74754119 5.31158141 1.11786042 3.35358125 0 0 Z " fill="#A8A8A8" transform="translate(685,336)"/>
<path d="M0 0 C4 1 4 1 6 3 C5.67 4.32 5.34 5.64 5 7 C3.35 4.69 1.7 2.38 0 0 Z " fill="#8D8D8E" transform="translate(671,319)"/>
<path d="M0 0 C2.5 2.3125 2.5 2.3125 5 5 C5 5.99 5 6.98 5 8 C2.21611025 6.29374499 1.14615794 5.52373261 0.25 2.3125 C0.1675 1.549375 0.085 0.78625 0 0 Z " fill="#A4A3A2" transform="translate(791,241)"/>
</svg>
